<?xml version="1.0" standalone="no"?>
<!DOCTYPE svg PUBLIC "-//W3C//DTD SVG 20010904//EN"
 "http://www.w3.org/TR/2001/REC-SVG-20010904/DTD/svg10.dtd">
<svg version="1.0" xmlns="http://www.w3.org/2000/svg"
 width="256.000000pt" height="256.000000pt" viewBox="0 0 256.000000 256.000000"
 preserveAspectRatio="xMidYMid meet">
<metadata>
Created by potrace 1.11, written by Peter Selinger 2001-2013
</metadata>
<g transform="translate(0.000000,256.000000) scale(0.100000,-0.100000)"
fill="#000000" stroke="none">
<path d="M5 2548 c-3 -7 -4 -582 -3 -1278 l3 -1265 1275 0 1275 0 0 1275 0
1275 -1273 3 c-1013 2 -1274 0 -1277 -10z m1143 -755 c56 -164 106 -316 111
-338 5 -22 12 -53 15 -68 9 -37 22 -27 30 24 5 34 112 386 187 617 l21 62 179
0 179 0 0 -865 0 -865 -135 0 -135 0 0 574 c0 500 7 755 25 859 3 17 0 27 -8
27 -8 0 -24 -44 -41 -117 -16 -65 -60 -221 -97 -346 -38 -125 -69 -230 -69
-233 0 -2 -57 -3 -127 -2 l-127 3 -68 210 c-37 116 -82 272 -100 348 -21 87
-37 137 -46 137 -8 0 -10 -8 -7 -22 18 -76 25 -323 25 -845 l0 -593 -135 0
-135 0 0 865 0 865 179 0 179 0 100 -297z"/>
</g>
</svg>
